<svg width="28" height="30" viewBox="0 0 28 30" fill="none" xmlns="http://www.w3.org/2000/svg">
<g clip-path="url(#clip0_13_1140)">
<path d="M17.133 2.42592C17.133 2.26213 17.0896 2.10126 17.0072 1.95974C16.9247 1.81821 16.8062 1.70109 16.6637 1.62034C16.5212 1.53958 16.3598 1.49808 16.196 1.50007C16.0323 1.50205 15.8719 1.54746 15.7314 1.63165L6.69453 7.05083H3.24714C1.71229 7.05083 0.469971 8.2913 0.469971 9.828V17.2375C0.469971 18.7723 1.71044 20.0147 3.24714 20.0147H6.69453L15.7296 25.4375C15.8701 25.5222 16.0306 25.568 16.1947 25.5702C16.3587 25.5724 16.5204 25.531 16.6632 25.4502C16.806 25.3694 16.9248 25.2521 17.0073 25.1103C17.0898 24.9685 17.1332 24.8073 17.133 24.6433V2.42592ZM24.922 13.5272L27.54 16.1433L26.231 17.4523L23.6131 14.8362L20.9951 17.4523L19.6861 16.1433L22.3041 13.5272L19.6861 10.9111L20.9951 9.60212L23.6131 12.2182L26.2328 9.60212L27.54 10.9111L24.922 13.5272Z" fill="white"/>
</g>
<defs>
<clipPath id="clip0_13_1140">
<rect width="27.07" height="27.07" fill="white" transform="translate(0.469971)"/>
</clipPath>
</defs>
</svg>
