<svg width="28" height="28" viewBox="0 0 28 28" fill="none" xmlns="http://www.w3.org/2000/svg">
<path d="M12.1799 17.524L11.7839 10.684H13.5839C14.0879 10.684 14.5319 10.6 14.9159 10.432C15.2999 10.24 15.5879 9.97596 15.7799 9.63996C15.9959 9.30396 16.1039 8.91996 16.1039 8.48796C16.1039 8.03196 15.9959 7.64796 15.7799 7.33596C15.5879 6.99996 15.3119 6.74796 14.9519 6.57996C14.6159 6.41196 14.2079 6.32796 13.7279 6.32796C12.9119 6.32796 12.1559 6.57996 11.4599 7.08396C10.7639 7.58796 10.1879 8.21196 9.73188 8.95596L5.87988 5.21196C6.59988 3.84396 7.64388 2.71596 9.01188 1.82796C10.4039 0.915962 12.0719 0.459961 14.0159 0.459961C15.5999 0.459961 17.0039 0.807962 18.2279 1.50396C19.4519 2.17596 20.3999 3.08796 21.0719 4.23996C21.7679 5.36796 22.1159 6.62796 22.1159 8.01996C22.1159 9.50796 21.8159 10.756 21.2159 11.764C20.6399 12.772 19.8599 13.576 18.8759 14.176C17.9159 14.776 16.8599 15.208 15.7079 15.472L17.2919 13.168L17.0039 17.524H12.1799ZM14.5919 27.532C13.5599 27.532 12.6959 27.184 11.9999 26.488C11.3279 25.792 10.9919 24.928 10.9919 23.896C10.9919 22.864 11.3279 22 11.9999 21.304C12.6959 20.608 13.5599 20.26 14.5919 20.26C15.6239 20.26 16.4759 20.608 17.1479 21.304C17.8199 22 18.1559 22.864 18.1559 23.896C18.1559 24.928 17.8199 25.792 17.1479 26.488C16.4759 27.184 15.6239 27.532 14.5919 27.532Z" fill="white"/>
</svg>
